<?xml version="1.0" encoding="utf-8"?>
<!-- Generator: Adobe Illustrator 22.1.0, SVG Export Plug-In . SVG Version: 6.00 Build 0)  -->
<svg version="1.1" id="Layer_1" xmlns="http://www.w3.org/2000/svg" xmlns:xlink="http://www.w3.org/1999/xlink" x="0px" y="0px"
	 viewBox="0 0 1963.6 292" style="enable-background:new 0 0 1963.6 292;" xml:space="preserve">
<title>ch-logo</title>
<g id="Layer_2_1_">
	<g id="Layer_1-2">
		<path style="fill:#FFFFFF;" d="M240.8,165.3l-21.6,7.3v38.5c0,25.6,21,18.2,21,26c0,2.6-1.6,2.4-4.2,2.4c-6.7,0-18.6-0.8-26.8-0.8
			c-7.3,0-15.1,0.8-25.4,0.8c-2.8,0-4-0.8-4-2.2c0-7.1,14.7-1.6,14.7-21.2V181l-18.8,6.4c-17.3,6.4-35.1,11.4-53.2,15v9.4
			c0,25,25,17.8,25,25c0,1.2,0.4,2.8-6.1,2.8c-8.3,0-14.9-0.8-29.4-0.8c-8.5,0-16.9,0.8-27,0.8c-2.4,0-4.4-0.4-4.4-3
			c0-8.1,17.2-0.8,17.2-25.8v-5.1c-3.5,0.2-6.9,0.4-10.2,0.4c-50.3,0-77.8-17.5-77.8-48.2c0-30.9,24.1-63.7,71.1-91.6
			c39.8-23.6,81.3-35.4,114.7-35.4c17.4,0,27.6,5.9,27.6,15.1c0,18.9-26.9,38.5-78.1,50.7l5.6-15.1c42.6-11.6,63.8-26.2,63.8-37.5
			c0-5.9-6.6-9.7-19.2-9.7c-20.9,0-48.5,7.5-74.6,22.4C67.2,87.3,37.2,129,37.2,157.1c0,26.7,22,42.2,59.6,42.2h0.8v-78.6
			c0-22-22.8-13.1-22.8-20.8c0-3,6.1-3.2,9.9-3.2c6.1,0,12.1,0.8,22.6,0.8c12.1,0,20.2-0.8,26-0.8c2.8,0,4.6,1,4.6,3
			c0,6.2-15.5,0.4-15.5,18.4V197c15.8-2.6,33.3-7.4,53.2-14l18.8-6.2v-56.1c0-22.2-22.2-14.9-22.2-20.8c0-3.6,1.8-3.2,4.6-3.2
			c8.3,0,13.5,0.8,26,0.8c10.5,0,18-0.8,26.6-0.8c3.4,0,4.2,0.6,4.2,2.4c0,7.7-14.5-1-14.5,18.8v50.8l23.6-7.7L240.8,165.3z M146,0
			C65.4,0,0,65.4,0,146s65.4,146,146,146s146-65.4,146-146S226.6,0,146,0z"/>
		<path style="fill:#FFFFFF;" d="M489.2,254.3c-60.8,0-95.1-46.6-94.8-100.1c0.5-55.5,40.9-108.7,97.5-108.7
			c29.6,0,45.9,6.8,62.4,14.9c3.4,1.8,5.8,3.7,9.4,3.1c5.2-0.8,4.7-10.5,10.2-9.7c1.5,0.3,2.7,1.6,2.9,3.1l4.7,57.9
			c0.2,2.2-1.1,4.3-3.1,5c-2.6,1-5.2-1.3-6.5-4.2c-10.5-22.5-33.5-57.9-77.8-57.9c-39.3,0-62.9,35.4-62.9,80.4
			c0,47.7,29.3,95.6,78.3,95.6c29.6,0,54.2-22,67.3-36.7c1.3-1.8,3.4-2.6,5.8-0.5c2.1,1.8,1.6,3.7,1,5.2
			C576.7,223.1,547.7,254.3,489.2,254.3z"/>
		<path style="fill:#FFFFFF;" d="M718.7,243.1c0,0.3-17.8,14.4-28.6,12.6c-11-2.1-11.5-7.9-15.7-15.7c-0.3-0.5,0-1.3-0.8-1.6
			c-0.5-0.5-1.6,0.3-2.1,0.8c-0.5,0-17.5,12.6-30.4,14.9c-15.2,3.1-34.8-1-38-17c-5.8-29.3,12-41.4,33.8-49.5
			c12.8-4.7,32.5-8.1,32.8-8.1c0,0,1.8-31.4-10.5-38.5c-8.4-4.4-20.7-4.7-24.6,0c-1.8,2.6-1.3,5.2-2.4,8.4c0,0.8,0.8,8.9-3.7,12.8
			c-5.2,4.7-14.9,5.2-15.7,5c-0.3,0-6.3-0.3-7.9-2.6c-5-8.6,3.9-26.2,24.9-32.5c22.8-6.6,48.2-7.3,62.9,9.2
			c8.4,9.4,7.6,23.8,7.6,34.3v52.4c0,4.2,1.3,8.4,5.5,9.2c6.5,1.6,12-4.7,14.4,0C722.1,240.4,718.7,243.1,718.7,243.1z M669.7,192.8
			c0-1.3-0.5-2.9-1.8-3.1c-2.4-0.8-23.3,3.9-30.4,17c-5.5,10.7-4.5,30.1,9.4,30.6c8.6,0.5,17.3-1.6,21.5-6.3c1-1.3,1.3-2.6,1.3-4.7
			L669.7,192.8z"/>
		<path style="fill:#FFFFFF;" d="M792.6,255.6c-16.8-0.3-23-4.2-36.4-11c-1.3-0.3-0.8-1.3-2.9-1.3c-1.1,0.1-2,0.7-2.6,1.6
			c-0.3,0-5.5,11.5-11,11s-4.5-4.4-4.5-5c-0.3-0.5,1.8-8.9,2.4-14.4c0.8-8.1,0.5-21,0.5-21.5V78.8c0-0.3,0-8.1-2.9-11.3
			c-3.7-4.2-13.6-2.6-14.2-3.4c-1.8-0.5-2.9-2.1-3.1-4.2c-0.1-2.4,1.4-4.6,3.7-5.5c0,0,15.2-4.2,24.9-7.1c11-3.1,17-11,20.7-11.3
			c3.7,0,2.9,4.7,2.9,5.2v105.1c2.6-3.1,21-19.7,40.3-17.6c37.5,3.4,46.1,40.1,41.7,69.4C847.3,229.7,824,256.9,792.6,255.6z
			 M816.4,163.6c-12.6-18.9-28-14.7-34.8-13.4c-6.3,0.8-12.8,7.1-12.8,15.5v49.8c0,7.1,1.6,11.8,5.5,17.8
			c11.8,15.7,42.2,16,50.6-8.4C830.8,206.9,828.2,181.2,816.4,163.6L816.4,163.6z"/>
		<path style="fill:#FFFFFF;" d="M931.4,255.1c-30.7,0-61-20.2-61-63.7c0-42.7,31.7-62.9,67.1-62.9c36.9,0,60.8,26.7,60.8,63.9
			C998.2,228.6,967.3,255.1,931.4,255.1z M929.9,138.5c-18.3,0-29.6,12.3-29.6,38.8c0,32,6.8,68.4,36.9,68.4
			c16.8,0,30.4-11.5,30.4-37.7C967.6,169.7,959.5,138.5,929.9,138.5z"/>
		<path style="fill:#FFFFFF;" d="M1100.2,237c0,0.8-16,17.8-40.9,16.8c-19.7-0.8-27-11.5-27-25.9v-81h-10.7c-2.9,0-5.2-1.3-5.2-5
			c0-5.2,10.2-11.3,22.8-24.9c12.6-13.4,15.5-23.8,20.4-23.8c2.6,0,3.7,2.4,3.7,4.7v28.8c0,0-0.5,2.4,0.8,3.1
			c0.5,0.4,1.2,0.7,1.8,0.8h21.8c1.4,0.1,2.9-0.1,4.2-0.8c1-0.7,1.7-1.7,2.1-2.9c0-0.3,1.6-2.9,3.9-2.4c2.1,0.8,1.6,3.4,0.8,5.2
			l-5.5,14.1c-0.3,1.2-1.2,2.2-2.4,2.6c-1,0.3-2.1,0.4-3.1,0.3h-24.9l-0.3,73.4c0,0.3-2.1,17.6,13.9,17c6.9-0.1,13.5-2.5,18.9-6.8
			c2.1-0.5,3.7-1,5.2,0.8C1102,233.4,1101.5,236.5,1100.2,237z"/>
		<path style="fill:#FFFFFF;" d="M1409.8,252.2c-0.5,0.3-23.3-0.8-38-0.8c-16,0-41.1,1-41.4,0.8c-0.3,0-3.4-0.5-3.4-3.4
			c-0.3-6.8,10-6.8,14.4-11.5c7.3-7.9,6-16,6-16.5v-58.4c0-3.1,0.3-5.2-1.3-7.6c-1.4-2.1-3.8-3.4-6.3-3.4h-87.2
			c-2.5-0.2-5,0.7-6.8,2.4c-1.7,1.5-2.7,3.7-2.6,6v59.5c-0.1,4.4,0.9,8.7,2.9,12.6c8.4,15.2,28.6,7.6,28.8,16.2
			c0,3.4-4.2,4.2-5.8,4.2c-0.5,0.3-23.1-1.6-37.7-1.6c-16,0-41.1,1.6-41.1,1.6c-0.3,0-3.4-1.3-3.7-4.2c-0.3-7.1,10-6.8,14.4-11.5
			c4.4-4.9,6.6-11.5,6-18.1V78.8c0.2-4-0.8-8.1-2.9-11.5c-6.6-11.3-30.1-7.6-29.3-16c0.3-3.4,3.4-3.4,5.2-3.4c0.5-0.3,22.8,1,37.2,1
			c16.8,0,43.2-1,43.2-1c0.3,0,4.2,0.3,3.9,3.4c-0.3,7.6-10.2,3.4-16,10c-5.8,6.3-5.2,17.8-5.2,18.3v45.6c0,3.1-0.3,5.5,1.8,7.3
			c1.5,1.7,3.7,2.5,6,2.4h89.6c2.1,0.1,4.1-0.9,5.2-2.6c1.6-1.8,1.6-3.7,1.6-6.3V79.6c0.2-4-0.7-8.1-2.8-11.6
			c-6.3-11-29.6-7.9-29.1-16.5c0.3-3.1,3.7-3.7,5.2-3.7c0.5-0.5,23.1,0.8,37.7,0.8c16.2,0,42.4-0.8,42.4-0.8c0.3,0,4.4,1,4.4,4.2
			c-0.3,7.3-10.5,3.9-16.5,10.5c-5.8,6.3-5.2,18.1-5.2,18.3v138.6c-0.2,4.4,0.8,8.7,2.9,12.6c8.7,15.5,28.8,7.6,28.8,16.2
			C1415.3,251.7,1411.4,252.2,1409.8,252.2z"/>
		<path style="fill:#FFFFFF;" d="M1493.9,255.1c-30.7,0-61-20.2-61-63.7c0-42.7,31.7-62.9,67.1-62.9c36.9,0,60.8,26.7,60.8,63.9
			C1560.7,228.6,1529.8,255.1,1493.9,255.1z M1492.3,138.5c-18.3,0-29.6,12.3-29.6,38.8c0,32,6.8,68.4,36.9,68.4
			c16.8,0,30.4-11.5,30.4-37.7C1530,169.7,1521.9,138.5,1492.3,138.5L1492.3,138.5z"/>
		<path style="fill:#FFFFFF;" d="M1727.8,247.2l-44,5.8c-1.6,0.3-2.9,0.5-4.4-0.3c-1.3-0.5-2.1-2.4-2.1-3.9l-0.3-13.9
			c-1,1.6-23.6,25.2-54.5,17c-30.1-8.1-26.5-43.2-26.5-43.5v-47.9c0-0.3,0.8-7.9-1.8-11.3c-2.9-3.7-11.3-3.1-11.8-3.7
			c-1.8-0.5-2.9-1.6-3.1-3.9c-0.3-2.3,1.2-4.4,3.4-5c0,0,14.4-1.6,23.1-3.4c10.7-2.6,14.9-7.1,18.6-7.1c3.4,0,3.4,3.7,3.4,3.9v81.5
			c0,18.3,12.8,24.6,24.1,23.6c24.9-2.9,25.2-15.2,25.2-27.5v-47.1c0-0.3,0.8-7.9-1.8-11.3c-3.1-3.7-11.5-3.1-12.1-3.7
			c-1.8-0.5-2.9-1.6-3.1-3.9c-0.3-2.3,1.2-4.4,3.4-5c0,0,14.4-1.6,23.1-3.4c10.7-2.6,14.9-7.1,18.6-7.1s3.4,3.7,3.4,3.9v96.2
			c0,0-0.5,5.8,1.3,8.9c3.1,4.7,16.5,3.7,17,4.2c1.8,0.5,3.1,1.3,3.4,3.7S1729.2,247,1727.8,247.2z"/>
		<path style="fill:#FFFFFF;" d="M1831.8,233.1c-6.6,13.6-25.2,20.4-41.4,21.2c-11.5,0.5-37.2-4.2-37.5-4.2s-4.2-0.5-5.5-1.3
			c-0.8-1-1.4-2.2-1.8-3.4l3.7-34.8c0-1.8,0.3-3.7,2.1-4.2c2.4-0.8,3.7,0.8,4.2,2.9c0,0,5,16.8,10,24.1
			c9.4,13.9,25.7,15.5,37.5,11.3c7.3-2.6,12.8-10.7,9.4-22.3c-2.1-7.1-9.2-10.5-16.8-14.1l-26.7-12.1c-0.5-0.3-24.1-11-20.2-33.8
			c2.9-17.6,19.1-33.5,38.8-33.3c16,0,19.7,3.4,26.5,3.4c3.7,0,6.3-3.1,9.7-3.1c1.6,0,1.8,2.1,1.8,3.7l2.9,28.3
			c0.2,1.6-0.8,3-2.4,3.4c-1.3,0.5-2.9-0.3-4.2-1.3c-0.3-0.3-7.3-21.2-26.2-26.2c-13.6-3.4-24.6,2.6-25.2,13.9
			c-0.8,9.2,6.3,13.1,14.2,16.2l26.2,10.5c0.5,0.3,18.3,8.6,22.5,22.3C1837.3,212.1,1836,224.7,1831.8,233.1z"/>
		<path style="fill:#FFFFFF;" d="M1962.8,181.2c-0.8,0.5-3.7,0.5-3.7,0.5h-75.7c-3.1,0-3.1,5-3.1,9.4c0,27.8,24.6,45.9,42.2,45.9
			c13.6,0,19.4-4.2,27.5-9.7c4.2-2.9,8.4-7.3,11.3-5.5c3.4,1.8,1.6,5.5,1.6,5.5s-14.9,28-56.8,28c-37.2,0-55-31.7-55-58.9
			c0-33.3,18.6-69.4,57.1-69.4c36.2,0,55.5,26.2,55.5,50.8C1963.6,179.1,1963.9,180.2,1962.8,181.2z M1904.9,136.2
			c-23.3,0-26.7,27.2-24.6,32.5c-0.1,0.7,0.2,1.4,0.8,1.8c0.5,0.3,0.8,0.8,1.3,0.8h44.5c0.9-0.1,1.8-0.3,2.6-0.8
			c0.5-0.5,1.6-1.3,1.3-1.8C1933.2,165,1929.6,136.2,1904.9,136.2L1904.9,136.2z"/>
	</g>
</g>
</svg>
