<svg xmlns="http://www.w3.org/2000/svg" viewBox="0 0 1963.64 292"><defs><style>.cls-1,.cls-2{fill:#016f2f;}.cls-1{fill-rule:evenodd;}</style></defs><title>ch-logo</title><g id="Layer_2" data-name="Layer 2"><g id="Layer_1-2" data-name="Layer 1"><path class="cls-1" d="M240.81,165.3l-21.55,7.28v38.53c0,25.62,21,18.16,21,26,0,2.62-1.61,2.42-4.23,2.42-6.66,0-18.56-.81-26.83-.81-7.26,0-15.13.81-25.42.81-2.82,0-4-.81-4-2.22,0-7.06,14.72-1.61,14.72-21.18V181l-18.8,6.35a353.37,353.37,0,0,1-53.21,15v9.38c0,25,25,17.76,25,25,0,1.21.4,2.82-6.05,2.82-8.27,0-14.93-.81-29.45-.81-8.47,0-16.94.81-27,.81-2.42,0-4.44-.4-4.44-3,0-8.07,17.15-.81,17.15-25.82v-5.09c-3.47.22-6.88.35-10.21.35C37.19,206,9.64,188.5,9.64,157.83c0-30.91,24.06-63.72,71.14-91.56,39.76-23.6,81.26-35.4,114.74-35.4,17.44,0,27.55,5.9,27.55,15.1,0,18.88-26.85,38.46-78.12,50.74l5.58-15.1C193.08,70,214.35,55.41,214.35,44.08c0-5.9-6.63-9.68-19.18-9.68-20.93,0-48.48,7.55-74.63,22.42C67.18,87.27,37.19,129,37.19,157.12c0,26.66,22,42.24,59.63,42.24l.79,0v-78.6c0-22-22.8-13.11-22.8-20.78,0-3,6.05-3.23,9.89-3.23,6.05,0,12.1.81,22.59.81,12.1,0,20.17-.81,26-.81,2.82,0,4.64,1,4.64,3,0,6.25-15.53.4-15.53,18.36V197c15.77-2.61,33.29-7.38,53.21-14l18.8-6.18V120.74c0-22.19-22.19-14.93-22.19-20.78,0-3.63,1.82-3.23,4.64-3.23,8.27,0,13.51.81,26,.81,10.49,0,18-.81,26.63-.81,3.43,0,4.23.61,4.23,2.42,0,7.67-14.52-1-14.52,18.76v50.83L242.83,161ZM146,0A146,146,0,1,0,292,146,146,146,0,0,0,146,0Z"/><path class="cls-2" d="M489.22,254.32c-60.78,0-95.1-46.63-94.84-100.08.52-55.54,40.87-108.73,97.46-108.73,29.61,0,45.85,6.81,62.35,14.93,3.41,1.83,5.76,3.67,9.43,3.14,5.24-.79,4.72-10.48,10.22-9.69A3.59,3.59,0,0,1,576.73,57l4.72,57.9a4.79,4.79,0,0,1-3.14,5c-2.62,1-5.24-1.31-6.55-4.19-10.48-22.53-33.54-57.9-77.81-57.9-39.3,0-62.88,35.37-62.88,80.43,0,47.68,29.34,95.63,78.34,95.63,29.61,0,54.23-22,67.33-36.68,1.31-1.83,3.41-2.62,5.76-.52,2.1,1.83,1.57,3.67,1,5.24C576.73,223.15,547.65,254.32,489.22,254.32Z"/><path class="cls-2" d="M718.71,243.06c0,.26-17.82,14.41-28.56,12.58-11-2.1-11.53-7.86-15.72-15.72-.26-.52,0-1.31-.79-1.57-.52-.52-1.57.26-2.1.79-.52,0-17.55,12.58-30.39,14.93-15.2,3.14-34.85-1-38-17-5.76-29.34,12.05-41.4,33.8-49.52,12.84-4.72,32.49-8.12,32.75-8.12,0,0,1.83-31.44-10.48-38.51-8.38-4.45-20.7-4.72-24.63,0-1.83,2.62-1.31,5.24-2.36,8.38,0,.79.79,8.91-3.67,12.84-5.24,4.72-14.93,5.24-15.72,5-.26,0-6.29-.26-7.86-2.62-5-8.65,3.93-26.2,24.89-32.49,22.79-6.55,48.21-7.34,62.88,9.17,8.38,9.43,7.6,23.84,7.6,34.32v52.4c0,4.19,1.31,8.38,5.5,9.17,6.55,1.57,12.05-4.72,14.41,0C722.12,240.44,718.71,243.06,718.71,243.06Zm-49-50.3c0-1.31-.52-2.88-1.83-3.14-2.36-.79-23.32,3.93-30.39,17-5.5,10.74-4.45,30.13,9.43,30.65,8.64.52,17.29-1.57,21.48-6.29,1-1.31,1.31-2.62,1.31-4.72Z"/><path class="cls-2" d="M792.59,255.63c-16.77-.26-23.05-4.19-36.42-11-1.31-.26-.79-1.31-2.88-1.31a3.45,3.45,0,0,0-2.62,1.57c-.26,0-5.5,11.53-11,11s-4.45-4.45-4.45-5c-.26-.52,1.83-8.91,2.36-14.41.79-8.12.52-21,.52-21.48V78.79c0-.26,0-8.12-2.88-11.27-3.67-4.19-13.62-2.62-14.15-3.41-1.83-.52-2.88-2.1-3.14-4.19a5.67,5.67,0,0,1,3.67-5.5s15.2-4.19,24.89-7.07c11-3.14,17-11,20.7-11.27,3.67,0,2.88,4.72,2.88,5.24V146.38c2.62-3.14,21-19.65,40.35-17.55,37.46,3.41,46.11,40.08,41.66,69.43C847.35,229.7,824,256.94,792.59,255.63Zm23.84-92c-12.58-18.86-28-14.67-34.85-13.36-6.29.79-12.84,7.07-12.84,15.46v49.78c0,7.07,1.57,11.79,5.5,17.82,11.79,15.72,42.18,16,50.56-8.38C830.84,206.9,828.22,181.23,816.43,163.67Z"/><path class="cls-2" d="M931.44,255.11c-30.65,0-61-20.17-61-63.66,0-42.7,31.7-62.88,67.07-62.88,36.94,0,60.78,26.72,60.78,63.93C998.25,228.65,967.33,255.11,931.44,255.11Zm-1.57-116.59c-18.34,0-29.61,12.31-29.61,38.77,0,32,6.81,68.38,36.94,68.38,16.77,0,30.39-11.53,30.39-37.73C967.59,169.7,959.47,138.52,929.87,138.52Z"/><path class="cls-2" d="M1100.15,237c0,.79-16,17.82-40.87,16.77-19.65-.79-27-11.53-27-25.94v-81h-10.74c-2.88,0-5.24-1.31-5.24-5,0-5.24,10.22-11.27,22.79-24.89,12.58-13.36,15.46-23.84,20.43-23.84,2.62,0,3.67,2.36,3.67,4.72v28.82s-.52,2.36.79,3.14a4.55,4.55,0,0,0,1.83.79h21.75a7.53,7.53,0,0,0,4.19-.79,6.59,6.59,0,0,0,2.1-2.88c0-.26,1.57-2.88,3.93-2.36,2.1.79,1.57,3.41.79,5.24l-5.5,14.15a3.94,3.94,0,0,1-2.36,2.62,6.45,6.45,0,0,1-3.14.26h-24.89l-.26,73.36c0,.26-2.1,17.55,13.89,17a31.38,31.38,0,0,0,18.86-6.81c2.1-.52,3.67-1,5.24.79C1102,233.36,1101.46,236.51,1100.15,237Z"/><path class="cls-2" d="M1409.81,252.23c-.52.26-23.32-.79-38-.79-16,0-41.13,1-41.39.79-.26,0-3.41-.52-3.41-3.41-.26-6.81,10-6.81,14.41-11.53,7.34-7.86,6-16,6-16.51V162.36c0-3.14.26-5.24-1.31-7.6a7.72,7.72,0,0,0-6.29-3.41h-87.24a9.08,9.08,0,0,0-6.81,2.36,7.59,7.59,0,0,0-2.62,6v59.47a27.44,27.44,0,0,0,2.88,12.58c8.38,15.2,28.56,7.6,28.82,16.24,0,3.41-4.19,4.19-5.76,4.19-.52.26-23.06-1.57-37.73-1.57-16,0-41.13,1.57-41.13,1.57-.26,0-3.41-1.31-3.67-4.19-.26-7.07,10-6.81,14.41-11.53a23.73,23.73,0,0,0,6-18.08V78.79a20.42,20.42,0,0,0-2.88-11.53c-6.55-11.27-30.13-7.6-29.34-16,.26-3.41,3.41-3.41,5.24-3.41.52-.26,22.79,1,37.2,1,16.77,0,43.23-1,43.23-1,.26,0,4.19.26,3.93,3.41-.26,7.6-10.22,3.41-16,10-5.76,6.29-5.24,17.82-5.24,18.34v45.59c0,3.14-.26,5.5,1.83,7.34a7.38,7.38,0,0,0,6,2.36h89.6a5.82,5.82,0,0,0,5.24-2.62c1.57-1.83,1.57-3.67,1.57-6.29V79.57A20.78,20.78,0,0,0,1344.57,68c-6.29-11-29.61-7.86-29.08-16.51.26-3.14,3.67-3.67,5.24-3.67.52-.52,23.06.79,37.73.79,16.24,0,42.44-.79,42.44-.79.26,0,4.45,1,4.45,4.19-.26,7.34-10.48,3.93-16.51,10.48-5.76,6.29-5.24,18.08-5.24,18.34V219.48a24,24,0,0,0,2.88,12.58c8.65,15.46,28.82,7.6,28.82,16.24C1415.31,251.7,1411.38,252.23,1409.81,252.23Z"/><path class="cls-2" d="M1493.89,255.11c-30.65,0-61-20.17-61-63.66,0-42.7,31.7-62.88,67.07-62.88,36.94,0,60.78,26.72,60.78,63.93C1560.7,228.65,1529.79,255.11,1493.89,255.11Zm-1.57-116.59c-18.34,0-29.61,12.31-29.61,38.77,0,32,6.81,68.38,36.94,68.38,16.77,0,30.39-11.53,30.39-37.73C1530,169.7,1521.93,138.52,1492.32,138.52Z"/><path class="cls-2" d="M1727.84,247.25l-44,5.76c-1.57.26-2.88.52-4.45-.26-1.31-.52-2.1-2.36-2.1-3.93l-.26-13.89c-1,1.57-23.58,25.15-54.49,17-30.13-8.12-26.46-43.23-26.46-43.49V160.53c0-.26.79-7.86-1.83-11.26-2.88-3.67-11.27-3.14-11.79-3.67-1.83-.52-2.88-1.57-3.14-3.93a4.56,4.56,0,0,1,3.41-5s14.41-1.57,23.06-3.41c10.74-2.62,14.93-7.07,18.6-7.07,3.41,0,3.41,3.67,3.41,3.93v81.48c0,18.34,12.84,24.63,24.1,23.58,24.89-2.88,25.15-15.2,25.15-27.51V160.53c0-.26.79-7.86-1.83-11.26-3.14-3.67-11.53-3.14-12.05-3.67-1.83-.52-2.88-1.57-3.14-3.93a4.56,4.56,0,0,1,3.41-5s14.41-1.57,23.06-3.41c10.74-2.62,14.93-7.07,18.6-7.07s3.41,3.67,3.41,3.93v96.15s-.52,5.76,1.31,8.91c3.14,4.72,16.51,3.67,17,4.19,1.83.52,3.14,1.31,3.41,3.67S1729.15,247,1727.84,247.25Z"/><path class="cls-2" d="M1831.84,233.1c-6.55,13.62-25.15,20.43-41.39,21.22-11.53.52-37.2-4.19-37.47-4.19s-4.19-.52-5.5-1.31a10.91,10.91,0,0,1-1.83-3.41l3.67-34.84c0-1.83.26-3.67,2.1-4.19,2.36-.79,3.67.79,4.19,2.88,0,0,5,16.77,10,24.1,9.43,13.89,25.68,15.46,37.47,11.27,7.33-2.62,12.84-10.74,9.43-22.27-2.1-7.07-9.17-10.48-16.77-14.15L1769,196.16c-.52-.26-24.1-11-20.17-33.8,2.88-17.55,19.13-33.54,38.78-33.27,16,0,19.65,3.41,26.46,3.41,3.67,0,6.29-3.14,9.69-3.14,1.57,0,1.83,2.1,1.83,3.67l2.88,28.3a3.11,3.11,0,0,1-2.36,3.41c-1.31.52-2.88-.26-4.19-1.31-.26-.26-7.34-21.22-26.2-26.2-13.62-3.41-24.63,2.62-25.15,13.89-.79,9.17,6.29,13.1,14.15,16.24l26.2,10.48c.52.26,18.34,8.65,22.53,22.27C1837.34,212.14,1836,224.72,1831.84,233.1Z"/><path class="cls-2" d="M1962.83,181.23c-.79.52-3.67.52-3.67.52h-75.72c-3.14,0-3.14,5-3.14,9.43,0,27.77,24.63,45.85,42.18,45.85,13.62,0,19.39-4.19,27.51-9.69,4.19-2.88,8.38-7.34,11.27-5.5,3.41,1.83,1.57,5.5,1.57,5.5s-14.93,28-56.85,28c-37.2,0-55-31.7-55-58.95,0-33.27,18.6-69.43,57.11-69.43,36.15,0,55.54,26.2,55.54,50.83C1963.61,179.13,1963.88,180.18,1962.83,181.23Zm-57.9-45.06c-23.32,0-26.72,27.25-24.63,32.49a1.76,1.76,0,0,0,.79,1.83c.52.26.79.79,1.31.79h44.54a5.85,5.85,0,0,0,2.62-.79c.52-.52,1.57-1.31,1.31-1.83C1933.22,165,1929.56,136.17,1904.93,136.17Z"/></g></g></svg>
