<?xml version="1.0" encoding="utf-8"?>
<!-- Generator: Adobe Illustrator 21.1.0, SVG Export Plug-In . SVG Version: 6.00 Build 0)  -->
<svg version="1.1" id="Layer_1" xmlns="http://www.w3.org/2000/svg" xmlns:xlink="http://www.w3.org/1999/xlink" x="0px" y="0px"
	 viewBox="0 0 1904.9 292" style="enable-background:new 0 0 1904.9 292;" xml:space="preserve">
<style type="text/css">
	.logo-circle{fill:#267332;}
	.logo-text{fill:#444444;}
</style>
<title>ch-logo</title>
<g id="Layer_2">
	<g id="Layer_1-2">
		<path class="logo-circle" d="M240.8,165.3l-21.6,7.3v38.5c0,25.6,21,18.2,21,26c0,2.6-1.6,2.4-4.2,2.4c-6.7,0-18.6-0.8-26.8-0.8
			c-7.3,0-15.1,0.8-25.4,0.8c-2.8,0-4-0.8-4-2.2c0-7.1,14.7-1.6,14.7-21.2V181l-18.8,6.4c-17.3,6.4-35.1,11.4-53.2,15v9.4
			c0,25,25,17.8,25,25c0,1.2,0.4,2.8-6.1,2.8c-8.3,0-14.9-0.8-29.4-0.8c-8.5,0-16.9,0.8-27,0.8c-2.4,0-4.4-0.4-4.4-3
			c0-8.1,17.2-0.8,17.2-25.8v-5.1c-3.5,0.2-6.9,0.4-10.2,0.4c-50.3,0-77.8-17.5-77.8-48.2c0-30.9,24.1-63.7,71.1-91.6
			c39.8-23.6,81.3-35.4,114.7-35.4c17.4,0,27.6,5.9,27.6,15.1c0,18.9-26.9,38.5-78.1,50.7l5.6-15.1c42.6-11.6,63.8-26.2,63.8-37.5
			c0-5.9-6.6-9.7-19.2-9.7c-20.9,0-48.5,7.5-74.6,22.4C67.2,87.3,37.2,129,37.2,157.1c0,26.7,22,42.2,59.6,42.2h0.8v-78.6
			c0-22-22.8-13.1-22.8-20.8c0-3,6.1-3.2,9.9-3.2c6.1,0,12.1,0.8,22.6,0.8c12.1,0,20.2-0.8,26-0.8c2.8,0,4.6,1,4.6,3
			c0,6.2-15.5,0.4-15.5,18.4V197c15.8-2.6,33.3-7.4,53.2-14l18.8-6.2v-56.1c0-22.2-22.2-14.9-22.2-20.8c0-3.6,1.8-3.2,4.6-3.2
			c8.3,0,13.5,0.8,26,0.8c10.5,0,18-0.8,26.6-0.8c3.4,0,4.2,0.6,4.2,2.4c0,7.7-14.5-1-14.5,18.8v50.8l23.6-7.7L240.8,165.3z M146,0
			C65.4,0,0,65.4,0,146s65.4,146,146,146s146-65.4,146-146S226.6,0,146,0z"/>
	</g>
</g>
<g>
	<path class="logo-text" d="M395.9,145.7c0-14.3,2.1-27.8,6.3-40.3c4.2-12.6,10.3-23.5,18.3-32.8c8-9.3,17.8-16.6,29.5-21.9
		c11.7-5.3,24.8-8,39.5-8c11.6,0,21.6,1.5,30,4.5c8.4,3,15.6,6.8,21.3,11.3c5.8,4.5,10.5,9.4,14.2,14.7c3.7,5.3,6.5,10.3,8.4,15
		s3.3,8.7,4,12.1c0.7,3.4,1.1,5.3,1.1,5.6h-12.1c-1.3-8.3-3.9-15.6-8-22.2c-4-6.5-9.1-12.1-15.1-16.7c-6.1-4.6-12.8-8.1-20.2-10.5
		c-7.4-2.4-15.3-3.6-23.5-3.6c-12.9,0-24.3,2.5-34.4,7.4c-10.1,5-18.6,11.6-25.6,20c-7,8.4-12.3,18.1-16,29.3
		c-3.7,11.2-5.5,23.1-5.5,35.8c0,12.7,1.8,24.6,5.5,35.8c3.7,11.2,9,21,16,29.3c7,8.4,15.5,15,25.6,20c10.1,5,21.6,7.4,34.4,7.4
		c9.5,0,18.5-2,26.8-5.9c8.4-3.9,15.6-9.2,21.9-15.7c6.2-6.5,11.2-14,15-22.6c3.8-8.5,5.9-17.4,6.5-26.6h12.1
		c-1.1,11.8-4,22.6-8.7,32.5s-10.6,18.5-17.9,25.7c-7.3,7.3-15.7,12.9-25.2,16.9c-9.5,4-19.7,6.1-30.6,6.1c-14.7,0-27.9-2.7-39.5-8
		c-11.7-5.3-21.5-12.6-29.5-21.9c-8-9.3-14.1-20.2-18.3-32.8C398,173.5,395.9,160,395.9,145.7z"/>
	<path class="logo-text" d="M685.9,215.9h-0.6c-1.7,4.2-4,8.2-7.2,12c-3.1,3.8-6.9,7.1-11.4,10.1c-4.5,2.9-9.6,5.2-15.3,6.9
		c-5.7,1.7-11.9,2.5-18.7,2.5c-15.1,0-26.7-3.3-35-9.8c-8.3-6.5-12.4-16.6-12.4-30.2c0-8.3,1.7-15,5-20.2c3.3-5.2,7.5-9.4,12.5-12.4
		c5-3,10.6-5.2,16.8-6.5c6.1-1.3,12.1-2.2,17.8-2.8l16.2-1.4c7.5-0.6,13.4-1.4,17.8-2.6c4.3-1.2,7.6-2.8,9.8-5
		c2.2-2.1,3.6-4.8,4.1-8.1s0.8-7.4,0.8-12.4c0-3.9-0.7-7.4-2.2-10.7c-1.5-3.3-3.8-6.2-6.9-8.8c-3.1-2.6-7.2-4.6-12.1-6.1
		c-5-1.5-11-2.2-18.2-2.2c-12.7,0-22.9,3.1-30.7,9.4c-7.8,6.2-12.1,15.7-12.8,28.4h-10.5c0.7-15.6,5.7-27.3,15-35.1
		c9.3-7.8,22.4-11.7,39.5-11.7c17.1,0,29.5,3.4,37.3,10.1c7.8,6.7,11.7,15.5,11.7,26.3v82.3c0,2,0,4,0.1,6.1c0.1,2,0.4,3.9,1,5.5
		c0.6,1.7,1.5,3,2.8,4c1.3,1,3.1,1.5,5.5,1.5c1.8,0,4.4-0.3,7.7-0.8v8.8c-2.8,0.7-5.6,1.1-8.5,1.1c-4.2,0-7.6-0.6-10.1-1.7
		c-2.5-1.1-4.4-2.6-5.6-4.4c-1.3-1.8-2.2-4-2.6-6.5c-0.5-2.5-0.7-5.2-0.7-8.1V215.9z M685.9,163.6c-2.6,3.1-6.5,5.2-11.7,6.3
		s-11.1,1.9-17.5,2.5l-17.6,1.7c-5.1,0.6-10.3,1.3-15.4,2.3c-5.1,1-9.8,2.7-13.9,5.1c-4.1,2.4-7.5,5.6-10.1,9.8
		c-2.6,4.1-3.9,9.5-3.9,16.1c0,10.5,3.3,18.2,9.9,23.3c6.6,5.1,15.7,7.6,27.3,7.6c11.9,0,21.4-2.2,28.4-6.5c7-4.3,12.3-9.3,16-14.9
		c3.7-5.6,6-11,7-16.2c1-5.2,1.5-8.8,1.5-10.6V163.6z"/>
	<path class="logo-text" d="M732.1,47.4h10.2v85.1h0.6c2-5.5,4.9-10.3,8.6-14.5c3.7-4.1,7.9-7.6,12.7-10.5c4.8-2.8,9.9-5,15.5-6.3
		c5.5-1.4,11.2-2.1,17.1-2.1c10.5,0,19.6,1.8,27.2,5.5c7.6,3.7,14,8.7,19.2,15.1c5.2,6.4,9,13.9,11.5,22.4
		c2.5,8.5,3.7,17.8,3.7,27.7c0,16.9-2.3,30.4-6.9,40.6c-4.6,10.2-10.1,18-16.6,23.4c-6.4,5.4-13.2,9-20.1,10.7
		c-7,1.7-13,2.6-17.9,2.6c-9.4,0-17.3-1.5-23.9-4.4s-11.9-6.4-16.1-10.3c-4.2-3.9-7.5-7.8-9.7-11.7c-2.2-3.9-3.6-6.7-4.1-8.5h-0.5
		V244h-10.2V47.4z M796.7,238.2c9.4,0,17.3-2,23.7-6.1c6.4-4,11.7-9.3,15.7-15.8c4-6.5,7-13.9,8.8-22c1.8-8.2,2.8-16.3,2.8-24.4
		c0-7.9-1.1-15.5-3.2-22.9c-2.1-7.3-5.3-13.9-9.7-19.7c-4.3-5.8-9.7-10.4-16-13.9c-6.4-3.5-13.8-5.2-22.2-5.2
		c-9.2,0-17.2,1.6-24,4.7c-6.8,3.1-12.4,7.4-16.8,12.9c-4.4,5.5-7.7,12-9.9,19.6c-2.2,7.5-3.3,15.7-3.3,24.5c0,8.6,1,17.1,3,25.3
		c2,8.3,5.2,15.6,9.5,21.9c4.3,6.3,9.9,11.4,16.7,15.3C778.7,236.3,787,238.2,796.7,238.2z"/>
	<path class="logo-text" d="M876.2,173.2c0-10.1,1.4-19.6,4.3-28.5c2.8-8.9,7-16.7,12.5-23.5c5.5-6.8,12.3-12.2,20.4-16.1
		c8.1-3.9,17.3-5.9,27.8-5.9s19.7,2,27.8,5.9c8.1,4,14.9,9.3,20.4,16.1c5.5,6.8,9.7,14.6,12.5,23.5c2.8,8.9,4.3,18.4,4.3,28.5
		c0,10.1-1.4,19.6-4.3,28.6c-2.8,9-7,16.8-12.5,23.5c-5.5,6.7-12.3,12-20.4,16c-8.1,3.9-17.3,5.9-27.8,5.9s-19.7-2-27.8-5.9
		c-8.1-3.9-14.9-9.3-20.4-16c-5.5-6.7-9.7-14.5-12.5-23.5C877.6,192.9,876.2,183.3,876.2,173.2z M886.6,173.2
		c0,8.4,1.2,16.6,3.6,24.4c2.4,7.8,5.9,14.7,10.5,20.8c4.6,6.1,10.3,10.9,17.1,14.5c6.8,3.6,14.6,5.4,23.4,5.4s16.6-1.8,23.4-5.4
		c6.8-3.6,12.5-8.4,17.1-14.5c4.6-6.1,8.1-13,10.5-20.8c2.4-7.8,3.6-15.9,3.6-24.4c0-8.4-1.2-16.6-3.6-24.4
		c-2.4-7.8-5.9-14.7-10.5-20.8c-4.6-6.1-10.3-10.9-17.1-14.5c-6.8-3.6-14.6-5.4-23.4-5.4s-16.6,1.8-23.4,5.4
		c-6.8,3.6-12.5,8.4-17.1,14.5c-4.6,6.1-8.1,13-10.5,20.8C887.8,156.7,886.6,164.8,886.6,173.2z"/>
	<path class="logo-text" d="M1082.7,111.5h-30.8v98.9c0,5.7,0.6,10.2,1.9,13.5c1.3,3.3,3.3,5.8,5.9,7.6c2.7,1.7,5.9,2.8,9.6,3.2
		c3.8,0.4,8.1,0.5,13.1,0.3v9.1c-5.3,0.4-10.5,0.3-15.6-0.1c-5.1-0.5-9.5-1.8-13.4-4.1c-3.9-2.3-6.9-5.7-9.2-10.3
		c-2.3-4.6-3.3-10.9-2.9-19v-98.9h-26.2v-9.1h26.2V58.4h10.5v44.1h30.8V111.5z"/>
	<path class="logo-text" d="M1180.4,47.4h12.1v89.2h125.6V47.4h12.1V244h-12.1v-96.9h-125.6V244h-12.1V47.4z"/>
	<path class="logo-text" d="M1356.4,173.2c0-10.1,1.4-19.6,4.3-28.5c2.8-8.9,7-16.7,12.5-23.5c5.5-6.8,12.3-12.2,20.4-16.1
		c8.1-3.9,17.3-5.9,27.8-5.9s19.7,2,27.8,5.9c8.1,4,14.9,9.3,20.4,16.1c5.5,6.8,9.7,14.6,12.5,23.5c2.8,8.9,4.3,18.4,4.3,28.5
		c0,10.1-1.4,19.6-4.3,28.6c-2.8,9-7,16.8-12.5,23.5c-5.5,6.7-12.3,12-20.4,16c-8.1,3.9-17.3,5.9-27.8,5.9s-19.7-2-27.8-5.9
		c-8.1-3.9-14.9-9.3-20.4-16c-5.5-6.7-9.7-14.5-12.5-23.5C1357.8,192.9,1356.4,183.3,1356.4,173.2z M1366.8,173.2
		c0,8.4,1.2,16.6,3.6,24.4c2.4,7.8,5.9,14.7,10.5,20.8c4.6,6.1,10.3,10.9,17.1,14.5c6.8,3.6,14.6,5.4,23.4,5.4s16.6-1.8,23.4-5.4
		c6.8-3.6,12.5-8.4,17.1-14.5c4.6-6.1,8.1-13,10.5-20.8c2.4-7.8,3.6-15.9,3.6-24.4c0-8.4-1.2-16.6-3.6-24.4
		c-2.4-7.8-5.9-14.7-10.5-20.8c-4.6-6.1-10.3-10.9-17.1-14.5c-6.8-3.6-14.6-5.4-23.4-5.4s-16.6,1.8-23.4,5.4
		c-6.8,3.6-12.5,8.4-17.1,14.5c-4.6,6.1-8.1,13-10.5,20.8C1368,156.7,1366.8,164.8,1366.8,173.2z"/>
	<path class="logo-text" d="M1622.9,244h-10.5v-30.3h-0.6c-1.8,5.3-4.5,10.1-7.8,14.2c-3.4,4.1-7.3,7.7-11.8,10.6
		c-4.5,2.9-9.4,5.1-14.7,6.6c-5.3,1.5-10.7,2.2-16.2,2.2c-8.3,0-15.3-1-21.1-3c-5.8-2-10.5-4.7-14.2-8c-3.7-3.3-6.6-7-8.7-11.2
		c-2.1-4.1-3.6-8.3-4.5-12.5c-0.9-4.2-1.5-8.3-1.7-12.3c-0.2-3.9-0.3-7.4-0.3-10.3v-87.6h10.5v89.5c0,3.7,0.3,8.1,0.8,13.4
		c0.6,5.2,2.2,10.3,4.8,15.1c2.7,4.9,6.7,9,12,12.5c5.3,3.5,12.8,5.2,22.6,5.2c7.9,0,15-1.5,21.3-4.4c6.3-2.9,11.7-7,16.1-12.3
		c4.4-5.2,7.8-11.5,10.1-18.7c2.3-7.2,3.4-15.2,3.4-23.8v-76.6h10.5V244z"/>
	<path class="logo-text" d="M1658.7,196.9c0.4,6.6,1.8,12.4,4.4,17.5c2.6,5.1,5.9,9.4,10.1,12.9c4.1,3.6,8.9,6.3,14.5,8.1
		c5.5,1.8,11.5,2.8,17.9,2.8c4.6,0,9.5-0.4,14.7-1.2c5.2-0.8,10.1-2.3,14.6-4.5c4.5-2.2,8.2-5.3,11.2-9.2c2.9-3.9,4.4-8.9,4.4-15
		c0-7.9-2.4-13.9-7.2-17.9c-4.8-4-10.8-7.2-18-9.4c-7.3-2.2-15.1-4-23.4-5.4c-8.4-1.4-16.2-3.4-23.4-6.2c-7.3-2.8-13.3-6.7-18-11.7
		c-4.8-5-7.2-12.4-7.2-22.2c0-7,1.6-12.8,4.7-17.5c3.1-4.7,7.1-8.4,12-11.2c4.9-2.8,10.3-4.7,16.4-5.9c6.1-1.2,12.1-1.8,18.2-1.8
		c7.3,0,14.2,0.8,20.7,2.5c6.4,1.7,12,4.3,16.7,8c4.7,3.7,8.4,8.4,11,14c2.7,5.7,4,12.6,4,20.7h-10.5c0-6.4-1.1-11.9-3.2-16.5
		c-2.1-4.6-5.1-8.3-8.8-11.2c-3.8-2.8-8.2-5-13.4-6.3c-5.1-1.4-10.6-2.1-16.5-2.1c-4.8,0-9.6,0.5-14.5,1.4
		c-4.9,0.9-9.2,2.5-13.1,4.7c-3.9,2.2-7,5.1-9.5,8.5c-2.5,3.5-3.7,7.7-3.7,12.7c0,5.7,1.4,10.3,4.1,13.8c2.8,3.5,6.4,6.3,10.9,8.4
		c4.5,2.1,9.5,3.8,15.1,5.1c5.6,1.3,11.2,2.6,16.9,3.9c7,1.3,13.5,2.8,19.7,4.5c6.1,1.7,11.5,4.1,16,7.2c4.5,3,8,6.9,10.6,11.7
		c2.6,4.8,3.9,10.8,3.9,18.2c0,7.7-1.7,14-5.2,19c-3.5,5-7.9,8.9-13.2,12c-5.3,3-11.2,5.1-17.8,6.3c-6.5,1.2-12.9,1.8-19.1,1.8
		c-8.1,0-15.6-1.1-22.4-3.2c-6.9-2.1-12.9-5.3-18-9.6c-5.1-4.3-9.2-9.6-12.1-15.8c-2.9-6.2-4.5-13.5-4.7-21.8H1658.7z"/>
	<path class="logo-text" d="M1790.1,174.6v1.7c0,8.3,1.1,16.2,3.3,23.7c2.2,7.5,5.5,14.1,9.8,19.8c4.3,5.7,9.8,10.2,16.3,13.5
		c6.5,3.3,14.1,5,22.8,5c14.2,0,25.4-3.7,33.7-11.2c8.3-7.4,14-17.8,17.1-31h10.5c-3.1,16.5-9.9,29.2-20.2,38
		c-10.4,8.8-24.1,13.2-41.2,13.2c-10.5,0-19.6-1.9-27.4-5.6c-7.8-3.8-14.3-8.9-19.6-15.4c-5.2-6.5-9.1-14.2-11.7-23.1
		c-2.6-8.9-3.9-18.5-3.9-28.8c0-9.9,1.3-19.4,4-28.5c2.7-9.1,6.7-17.1,12-24c5.3-6.9,12-12.4,20-16.5c8-4.1,17.4-6.2,28.2-6.2
		c9.9,0,18.7,1.8,26.3,5.5c7.6,3.7,14,8.7,19.1,15c5.1,6.3,9,13.7,11.7,22c2.7,8.4,4,17.3,4,26.8c0,0.9,0,2-0.1,3.2
		c-0.1,1.2-0.1,2.2-0.1,2.9H1790.1z M1894.2,165.5c-0.4-7.7-1.7-15-3.9-21.9c-2.2-6.9-5.5-12.9-9.8-18.2c-4.3-5.2-9.6-9.4-15.7-12.5
		c-6.2-3.1-13.2-4.7-21.1-4.7c-8.5,0-15.9,1.6-22.4,4.8c-6.4,3.2-11.9,7.4-16.3,12.7c-4.4,5.2-7.8,11.3-10.2,18.3
		c-2.4,7-3.9,14.1-4.4,21.5H1894.2z"/>
</g>
</svg>
