<?xml version="1.0" encoding="utf-8"?>
<!-- Generator: Adobe Illustrator 22.1.0, SVG Export Plug-In . SVG Version: 6.00 Build 0)  -->
<svg version="1.1" id="Layer_1" xmlns="http://www.w3.org/2000/svg" xmlns:xlink="http://www.w3.org/1999/xlink" x="0px" y="0px"
	 viewBox="0 0 38.4 57.6" style="enable-background:new 0 0 38.4 57.6;" xml:space="preserve">
<g>
	<path style="fill:#FFFFFF;" d="M33.5,4.9c2.5,3.2,3.7,6.6,3.7,10h-7c-0.4-2.2-1.1-3.9-2-5.2c-1.7-2.3-4.3-3.5-7.7-3.5
		c-3.9,0-7.1,1.8-9.4,5.4c-2.3,3.6-3.6,8.8-3.9,15.6c1.6-2.4,3.6-4.1,6.1-5.3c2.2-1,4.7-1.6,7.5-1.6c4.7,0,8.8,1.5,12.3,4.5
		c3.5,3,5.2,7.5,5.2,13.4c0,5.1-1.7,9.6-5,13.5c-3.3,3.9-8,5.9-14.1,5.9c-5.2,0-9.8-2-13.6-6C1.9,47.7,0,41,0,31.6
		c0-7,0.8-12.9,2.5-17.7C5.8,4.6,11.7,0,20.4,0C26.6,0,31,1.6,33.5,4.9z M28.2,47.6c1.8-2.5,2.8-5.4,2.8-8.8c0-2.9-0.8-5.6-2.5-8.2
		c-1.6-2.6-4.6-3.9-8.9-3.9c-3,0-5.7,1-7.9,3c-2.3,2-3.4,5-3.4,9.1c0,3.5,1,6.5,3.1,8.9c2.1,2.4,4.9,3.6,8.6,3.6
		C23.6,51.4,26.3,50.1,28.2,47.6z"/>
</g>
</svg>
