<?xml version="1.0" encoding="utf-8"?>
<!-- Generator: Adobe Illustrator 22.1.0, SVG Export Plug-In . SVG Version: 6.00 Build 0)  -->
<svg version="1.1" id="Layer_1" xmlns="http://www.w3.org/2000/svg" xmlns:xlink="http://www.w3.org/1999/xlink" x="0px" y="0px"
	 viewBox="0 0 38.7 56.1" style="enable-background:new 0 0 38.7 56.1;" xml:space="preserve">
<g>
	<path style="fill:#FFFFFF;" d="M3,43.6c1.7-3.6,5.1-6.8,10.1-9.7l7.5-4.3c3.4-2,5.7-3.6,7.1-5c2.1-2.2,3.2-4.6,3.2-7.4
		c0-3.3-1-5.9-2.9-7.8c-2-1.9-4.6-2.9-7.8-2.9c-4.8,0-8.2,1.8-10,5.5c-1,2-1.5,4.7-1.6,8.1H1.4c0.1-4.9,1-8.8,2.7-11.9
		C7.1,2.7,12.5,0,20.2,0c6.4,0,11.1,1.7,14,5.2c3,3.5,4.4,7.3,4.4,11.6c0,4.5-1.6,8.3-4.7,11.5c-1.8,1.8-5.1,4.1-9.8,6.7l-5.4,3
		c-2.6,1.4-4.6,2.7-6,4c-2.6,2.3-4.2,4.8-4.9,7.5h30.5v6.6H0C0.3,51.3,1.3,47.1,3,43.6z"/>
</g>
</svg>
