<?xml version="1.0" encoding="utf-8"?>
<!-- Generator: Adobe Illustrator 22.1.0, SVG Export Plug-In . SVG Version: 6.00 Build 0)  -->
<svg version="1.1" id="Layer_1" xmlns="http://www.w3.org/2000/svg" xmlns:xlink="http://www.w3.org/1999/xlink" x="0px" y="0px"
	 viewBox="0 0 39.1 57.5" style="enable-background:new 0 0 39.1 57.5;" xml:space="preserve">
<g>
	<path style="fill:#FFFFFF;" d="M4.5,52.1C1.5,48.5,0,44,0,38.8h7.3c0.3,3.6,1,6.2,2,7.9c1.8,2.9,5.1,4.4,9.9,4.4c3.7,0,6.7-1,8.9-3
		c2.2-2,3.4-4.5,3.4-7.7c0-3.9-1.2-6.5-3.5-8.1c-2.4-1.5-5.6-2.3-9.8-2.3c-0.5,0-0.9,0-1.4,0c-0.5,0-1,0-1.5,0.1V24
		c0.7,0.1,1.3,0.1,1.8,0.2c0.5,0,1,0,1.6,0c2.6,0,4.8-0.4,6.5-1.2c3-1.5,4.5-4.1,4.5-7.8c0-2.8-1-4.9-3-6.4c-2-1.5-4.3-2.3-6.9-2.3
		c-4.7,0-7.9,1.6-9.7,4.7c-1,1.7-1.5,4.2-1.7,7.3h-7c0-4.2,0.8-7.7,2.5-10.6C6.8,2.6,11.8,0,19,0c5.7,0,10.1,1.3,13.2,3.8
		S37,10,37,14.8c0,3.4-0.9,6.2-2.8,8.4c-1.1,1.3-2.6,2.4-4.5,3.1c2.9,0.8,5.2,2.4,6.9,4.7c1.7,2.3,2.5,5.1,2.5,8.5
		c0,5.3-1.8,9.7-5.3,13s-8.5,5-15,5C12.3,57.5,7.5,55.7,4.5,52.1z"/>
</g>
</svg>
