<?xml version="1.0" encoding="utf-8"?>
<!-- Generator: Adobe Illustrator 22.1.0, SVG Export Plug-In . SVG Version: 6.00 Build 0)  -->
<svg version="1.1" id="Layer_1" xmlns="http://www.w3.org/2000/svg" xmlns:xlink="http://www.w3.org/1999/xlink" x="0px" y="0px"
	 viewBox="0 0 70.1 57.5" style="enable-background:new 0 0 70.1 57.5;" xml:space="preserve">
<g>
	<path style="fill:#FFFFFF;" d="M0,16.3v-5.4c5.1-0.5,8.6-1.3,10.6-2.5c2-1.2,3.5-3.9,4.5-8.2h5.5v55.7h-7.5V16.3H0z"/>
	<path style="fill:#FFFFFF;" d="M66.3,8.9c2.5,4.6,3.8,10.9,3.8,18.9c0,7.6-1.1,13.9-3.4,18.9c-3.3,7.1-8.6,10.7-16.1,10.7
		c-6.7,0-11.7-2.9-15-8.8c-2.7-4.9-4.1-11.4-4.1-19.6c0-6.4,0.8-11.8,2.5-16.4C37,4.2,42.6,0,50.6,0C57.9,0,63.1,3,66.3,8.9z
		 M59.3,46.2c2.2-3.2,3.2-9.2,3.2-18c0-6.4-0.8-11.6-2.3-15.7S55.6,6.3,51,6.3c-4.1,0-7.2,1.9-9.1,5.8c-1.9,3.9-2.9,9.6-2.9,17.2
		c0,5.7,0.6,10.3,1.8,13.8c1.9,5.3,5.1,7.9,9.6,7.9C54.2,51.1,57.1,49.4,59.3,46.2z"/>
</g>
</svg>
