<?xml version="1.0" encoding="utf-8"?>
<!-- Generator: Adobe Illustrator 22.1.0, SVG Export Plug-In . SVG Version: 6.00 Build 0)  -->
<svg version="1.1" id="Layer_1" xmlns="http://www.w3.org/2000/svg" xmlns:xlink="http://www.w3.org/1999/xlink" x="0px" y="0px"
	 viewBox="0 0 38.4 57.7" style="enable-background:new 0 0 38.4 57.7;" xml:space="preserve">
<g>
	<path style="fill:#FFFFFF;" d="M5,23.4C3,21.3,2,18.6,2,15.2c0-4.2,1.5-7.7,4.5-10.7c3-3,7.3-4.5,12.8-4.5c5.4,0,9.6,1.4,12.6,4.2
		c3,2.8,4.6,6.1,4.6,9.9c0,3.5-0.9,6.3-2.7,8.5c-1,1.2-2.5,2.4-4.6,3.6c2.3,1.1,4.2,2.3,5.5,3.7c2.5,2.6,3.7,6,3.7,10.2
		c0,4.9-1.7,9.1-5,12.5c-3.3,3.4-8,5.1-14,5.1c-5.4,0-10-1.5-13.8-4.4C1.9,50.3,0,46,0,40.4c0-3.3,0.8-6.2,2.4-8.6
		c1.6-2.4,4-4.3,7.2-5.5C7.7,25.5,6.1,24.5,5,23.4z M27.7,48.7c2.1-1.8,3.2-4.4,3.2-7.9c0-3.6-1.1-6.4-3.3-8.2
		c-2.2-1.9-5.1-2.8-8.5-2.8c-3.4,0-6.1,1-8.2,2.9c-2.1,1.9-3.2,4.6-3.2,7.9c0,2.9,1,5.4,2.9,7.6c1.9,2.1,4.9,3.2,9,3.2
		C22.9,51.3,25.6,50.4,27.7,48.7z M26.4,21c1.7-1.7,2.6-3.8,2.6-6.2c0-2.1-0.8-4-2.5-5.8c-1.7-1.7-4.2-2.6-7.6-2.6
		c-3.4,0-5.8,0.9-7.3,2.6c-1.5,1.7-2.3,3.8-2.3,6.1c0,2.6,1,4.7,2.9,6.2c1.9,1.5,4.2,2.2,6.9,2.2C22.3,23.6,24.7,22.7,26.4,21z"/>
</g>
</svg>
