<?xml version="1.0" encoding="utf-8"?>
<!-- Generator: Adobe Illustrator 22.1.0, SVG Export Plug-In . SVG Version: 6.00 Build 0)  -->
<svg version="1.1" id="Layer_1" xmlns="http://www.w3.org/2000/svg" xmlns:xlink="http://www.w3.org/1999/xlink" x="0px" y="0px"
	 viewBox="0 0 37.8 57.5" style="enable-background:new 0 0 37.8 57.5;" xml:space="preserve">
<g>
	<path style="fill:#FFFFFF;" d="M7.8,42.5c0.2,3.9,1.7,6.6,4.5,8c1.4,0.8,3,1.2,4.8,1.2c3.4,0,6.2-1.4,8.6-4.2c2.4-2.8,4-8.5,5-17.1
		c-1.6,2.5-3.5,4.2-5.8,5.2c-2.3,1-4.8,1.5-7.4,1.5c-5.4,0-9.7-1.7-12.8-5C1.6,28.8,0,24.4,0,19.2c0-5.1,1.5-9.5,4.6-13.4
		C7.7,1.9,12.3,0,18.4,0c8.2,0,13.8,3.7,16.9,11c1.7,4,2.6,9.1,2.6,15.1c0,6.8-1,12.9-3.1,18.2c-3.4,8.8-9.2,13.2-17.3,13.2
		c-5.5,0-9.6-1.4-12.5-4.3c-2.8-2.9-4.3-6.5-4.3-10.8H7.8z M26.1,28.2c2.3-1.8,3.5-5,3.5-9.6c0-4.1-1-7.2-3.1-9.2
		c-2.1-2-4.7-3-7.9-3c-3.4,0-6.2,1.2-8.2,3.5c-2,2.3-3,5.4-3,9.2c0,3.6,0.9,6.5,2.7,8.7c1.8,2.1,4.6,3.2,8.5,3.2
		C21.2,31,23.8,30.1,26.1,28.2z"/>
</g>
</svg>
