<?xml version="1.0" encoding="utf-8"?>
<!-- Generator: Adobe Illustrator 22.1.0, SVG Export Plug-In . SVG Version: 6.00 Build 0)  -->
<svg version="1.1" id="Layer_1" xmlns="http://www.w3.org/2000/svg" xmlns:xlink="http://www.w3.org/1999/xlink" x="0px" y="0px"
	 viewBox="0 0 38.5 56.4" style="enable-background:new 0 0 38.5 56.4;" xml:space="preserve">
<g>
	<path style="fill:#FFFFFF;" d="M7.3,40.7c0.5,4,2.3,6.8,5.6,8.3c1.7,0.8,3.6,1.2,5.8,1.2c4.2,0,7.3-1.3,9.3-4c2-2.7,3-5.6,3-8.8
		c0-3.9-1.2-6.9-3.6-9.1c-2.4-2.1-5.2-3.2-8.6-3.2c-2.4,0-4.5,0.5-6.2,1.4c-1.7,0.9-3.2,2.2-4.4,3.9L2,30.1L6.3,0h29.1v6.8H11.6
		L9.2,22.3c1.3-1,2.5-1.7,3.7-2.2c2.1-0.9,4.5-1.3,7.2-1.3c5.1,0,9.5,1.7,13,5c3.6,3.3,5.4,7.5,5.4,12.6c0,5.3-1.6,9.9-4.9,14
		c-3.3,4-8.5,6.1-15.6,6.1c-4.6,0-8.6-1.3-12.1-3.8C2.4,50,0.4,46.1,0,40.7H7.3z"/>
</g>
</svg>
